# xmcd
#
# Track frame offsets: 
#        150
#        15007
#        26616
#        39553
#        51028
#        63019
#        78840
#        88493
#        98105
#        111804
#        121115
#        134438
#        144836
#        155720
#        166649
#
# Disc length: 2347 seconds
#
# Revision: 4
# Processed by: cddbd v1.5.2PL0 Copyright (c) Steve Scherf et al.
# Submitted via: ExactAudioCopy v0.99pb5
#
DISCID=ae09290f
DTITLE=Various Artist - The Roots Of Country Music [CD1]
DYEAR=2005
DGENRE=Country
TTITLE0=Loretta Lynn - Coal Miner's Daughter
TTITLE1=George Jones - Tender Years
TTITLE2=Charley Pride - Help Me Make It Through The Night
TTITLE3=Patsy Cline - Let The Teardrops Fall
TTITLE4=Dolly Parton - Making Believe
TTITLE5=Ferlin Husky - Phantom 309
TTITLE6=Faron Young - Hello Walls
TTITLE7=Glen Campbell - Gentle On My Mind
TTITLE8=Kenny Rogers - Ruby Don't Take Your Love To Town
TTITLE9=Conway Twitty - The Road That I Walk
TTITLE10=Roy Clark - Come Live With Me
TTITLE11=Tex Ritter - Boll Weevill
TTITLE12=Waylon Jennings - Deam Baby
TTITLE13=Mickey Gilley - Lawdy Miss Claudy
TTITLE14=Frankie Laine - Rawhide
EXTD=YEAR: 2005
EXTT0=
EXTT1=
EXTT2=
EXTT3=
EXTT4=
EXTT5=
EXTT6=
EXTT7=
EXTT8=
EXTT9=
EXTT10=
EXTT11=
EXTT12=
EXTT13=
EXTT14=
PLAYORDER=
